# xmcd
#
# Track frame offsets: 
#        182
#        21932
#        37562
#        54807
#        74735
#        97362
#        112190
#        132972
#        154060
#        176705
#        200252
#        216782
#        241720
#        260320
#
# Disc length: 3812 seconds
#
# Revision: 6
# Processed by: cddbd v1.5.2PL0 Copyright (c) Steve Scherf et al.
# Submitted via: ExactAudioCopy v1.0b3
#
DISCID=c20ee20e
DTITLE=Konstantin Wecker - Gamsig
DYEAR=1996
DGENRE=Folk
TTITLE0=Afrika (Gott helfe den Kindern von Afrika)
TTITLE1=Paradies
TTITLE2=Gamsig
TTITLE3=Wir zwoa
TTITLE4=Heit no
TTITLE5=Ebata (Staatsanwälte küßt man nicht)
TTITLE6=Sage nein
TTITLE7=Soulman
TTITLE8=Cameron
TTITLE9=Blues
TTITLE10=Geh noch kaputt an dir
TTITLE11=Da muss doch noch irgendwas sein
TTITLE12=If You Follow
TTITLE13=Inwendig warm
EXTD=
EXTT0=Gott helfe den Kindern von Afrika
EXTT1=
EXTT2=
EXTT3=
EXTT4=
EXTT5=Staatsanwälte küsst man nicht
EXTT6=
EXTT7=
EXTT8=
EXTT9=
EXTT10=
EXTT11=
EXTT12=
EXTT13=
PLAYORDER=
